<svg width="181" height="39" viewBox="0 0 181 39" fill="none" xmlns="http://www.w3.org/2000/svg">
<path d="M0 25.0044V13.8957H4.44926L4.55633 15.3159C5.53111 14.1521 6.89235 13.5708 8.64005 13.572C9.48872 13.5467 10.3326 13.7083 11.1121 14.0455C11.7904 14.3496 12.3671 14.8426 12.7736 15.4657C13.283 14.8541 13.9321 14.3745 14.6659 14.0676C16.3074 13.4146 18.1346 13.4067 19.7817 14.0455C20.5043 14.3392 21.12 14.8472 21.5463 15.5013C21.9726 16.1554 22.1891 16.9244 22.1669 17.7052V25.0044H17.4389V18.3728C17.4526 18.1359 17.4133 17.8988 17.3238 17.679C17.2344 17.4592 17.0971 17.2622 16.922 17.1024C16.5737 16.7939 16.1199 16.6323 15.6555 16.6511C15.265 16.6478 14.88 16.7439 14.5367 16.9304C14.1957 17.1145 13.913 17.3906 13.7207 17.7274C13.529 18.0766 13.4322 18.47 13.4401 18.8684V25.0044H8.71206V18.3728C8.71511 18.0691 8.63326 17.7706 8.47575 17.5111C8.34177 17.2478 8.13215 17.0307 7.87389 16.8878C7.60845 16.7275 7.30321 16.6454 6.99328 16.6511C6.58889 16.6447 6.18944 16.7408 5.83204 16.9304C5.4954 17.1104 5.2135 17.3781 5.01603 17.7052C4.82275 18.0618 4.72601 18.4628 4.73541 18.8684V25.0044H0Z" fill="white"/>
<path d="M31.1173 25.3928C29.7598 25.4132 28.4105 25.1793 27.1388 24.703C26.0534 24.2843 25.1028 23.5764 24.3899 22.6558C23.717 21.7243 23.3693 20.5966 23.4004 19.4473C23.3764 18.3189 23.7241 17.214 24.3899 16.3034C25.094 15.3915 26.0292 14.6852 27.0982 14.2581C28.3001 13.7741 29.5857 13.5328 30.881 13.548C32.226 13.528 33.5597 13.796 34.793 14.3339C35.8801 14.7879 36.8125 15.5478 37.4774 16.5217C38.1498 17.5106 38.4965 18.6856 38.4688 19.8818V20.4366H28.1081C28.1789 21.1038 28.5109 21.7155 29.0312 22.138C29.5321 22.5251 30.2195 22.7187 31.0933 22.7187C31.6091 22.7357 32.1225 22.6405 32.598 22.4394C33.0004 22.2373 33.3362 21.9233 33.5653 21.5351L38.1014 21.7718C37.5935 22.9821 36.6507 23.9575 35.4595 24.5051C34.2115 25.0981 32.7641 25.394 31.1173 25.3928ZM33.5893 18.2175C33.4749 17.5431 33.1955 17.0407 32.7512 16.7103C32.3069 16.3799 31.6915 16.2073 30.905 16.1925C29.3284 16.1925 28.4053 16.8675 28.1358 18.2175H33.5893Z" fill="white"/>
<path d="M50.2323 9.67554H54.9604V25.0044H50.6182L50.489 23.562C49.5154 24.8244 48.0256 25.4563 46.0194 25.4575C44.8553 25.4837 43.701 25.2401 42.6464 24.7455C41.725 24.281 40.9613 23.554 40.4514 22.6558C39.9163 21.673 39.6495 20.5663 39.6778 19.4473C39.6778 18.1848 39.9572 17.1085 40.516 16.2184C41.0668 15.3344 41.8568 14.6251 42.7941 14.173C43.7748 13.7083 44.8478 13.4725 45.9326 13.4833C47.7529 13.4833 49.1862 13.9764 50.2323 14.9627V9.67554ZM47.308 22.2268C48.2551 22.2268 48.9917 21.9901 49.5234 21.5166C50.0551 21.0432 50.3394 20.3183 50.3394 19.3844C50.3394 18.4505 50.0662 17.7422 49.5234 17.254C48.9806 16.7658 48.2477 16.4995 47.3302 16.4995C46.8339 16.493 46.3423 16.5959 45.8902 16.8009C45.4527 16.994 45.0848 17.3167 44.836 17.7256C44.5591 18.2351 44.4258 18.8104 44.4502 19.3899C44.4502 20.396 44.7154 21.1209 45.2458 21.5647C45.8336 22.0225 46.5641 22.257 47.308 22.2268Z" fill="white"/>
<path d="M59.16 12.775C58.7394 12.7813 58.3245 12.6774 57.9563 12.4736C57.6007 12.2745 57.3039 11.9849 57.096 11.634C56.8933 11.2496 56.7899 10.8204 56.7951 10.3857C56.7818 9.97221 56.8833 9.56313 57.0884 9.20399C57.2934 8.84484 57.5938 8.54973 57.9563 8.35147C58.3259 8.15491 58.7379 8.05212 59.1563 8.05212C59.5748 8.05212 59.9868 8.15491 60.3563 8.35147C60.7087 8.54724 60.9991 8.83814 61.1945 9.19105C61.4124 9.54745 61.5244 9.95861 61.5176 10.3765C61.5225 10.8139 61.4109 11.2448 61.1945 11.6247C60.9991 11.9777 60.7087 12.2685 60.3563 12.4643C59.9913 12.6702 59.579 12.7772 59.16 12.775ZM61.525 25.0045H56.7951V13.8957H61.525V25.0045Z" fill="white"/>
<path d="M72.9935 25.0045C72.8671 24.6611 72.7665 24.3088 72.6926 23.9504C72.1266 24.4723 71.4471 24.8553 70.708 25.0692C69.7957 25.346 68.8456 25.477 67.8926 25.4575C66.1867 25.4575 64.9258 25.1771 64.1098 24.6161C63.2938 24.0552 62.8926 23.1872 62.9061 22.0123C62.8865 21.4052 63.0272 20.8036 63.3141 20.2684C63.5873 19.795 64.0606 19.4072 64.7338 19.1052C65.407 18.8031 66.3523 18.588 67.5695 18.4598L71.0514 18.114C71.3544 18.0879 71.6558 18.0453 71.9542 17.9863C72.099 17.9593 72.2333 17.892 72.3418 17.7922C72.4017 17.6952 72.4312 17.5825 72.4268 17.4685V17.2836C72.4268 16.7905 72.2625 16.4391 71.9338 16.2295C71.6052 16.0199 71.0735 15.9022 70.3388 15.8763C69.6354 15.8763 69.0908 16.0039 68.7049 16.2628C68.3191 16.5217 68.0957 16.9452 68.0384 17.5758L63.5079 17.4038C63.59 16.606 63.9039 15.8499 64.4107 15.229C64.9129 14.6557 65.6513 14.2242 66.6261 13.9345C67.6009 13.6448 68.8692 13.5012 70.4311 13.5036C72.0778 13.5036 73.396 13.6688 74.3856 13.9992C75.3751 14.3297 76.0846 14.8105 76.5142 15.4417C76.9511 16.0594 77.1696 16.8429 77.1696 17.7922V22.2065C77.1696 23.4393 77.3413 24.372 77.6846 25.0045H72.9935ZM69.1683 22.9369C69.755 22.9448 70.3386 22.8497 70.8926 22.6558C71.3628 22.5002 71.7851 22.2256 72.1185 21.8588C72.4168 21.5212 72.5776 21.0835 72.5689 20.6327V19.9429C72.509 19.9688 72.4473 19.9905 72.3843 20.0076H72.2551L69.5892 20.3313C69.1503 20.3652 68.7187 20.463 68.308 20.6216C68.0569 20.6998 67.8383 20.8583 67.6858 21.0728C67.5626 21.273 67.5021 21.5055 67.5123 21.7404C67.5005 21.9134 67.5318 22.0865 67.6033 22.2444C67.6749 22.4022 67.7844 22.5398 67.9221 22.6448C68.1941 22.8395 68.6095 22.9369 69.1683 22.9369Z" fill="white"/>
<path d="M81.4565 25.3059C81.0129 25.3098 80.5759 25.1983 80.1882 24.9823C79.8108 24.7616 79.4938 24.4509 79.2651 24.0779C79.049 23.6898 78.9376 23.2519 78.942 22.8075C78.94 22.3704 79.0513 21.9403 79.2651 21.5592C79.49 21.1779 79.8076 20.8599 80.1882 20.6345C80.5731 20.4093 81.0108 20.2906 81.4565 20.2906C81.9022 20.2906 82.34 20.4093 82.7248 20.6345C83.1057 20.8595 83.4233 21.1777 83.6479 21.5592C83.8726 21.937 83.9912 22.3686 83.9912 22.8084C83.9912 23.2482 83.8726 23.6798 83.6479 24.0576C83.4243 24.4399 83.1064 24.7582 82.7248 24.9823C82.3373 25.1988 81.9002 25.3103 81.4565 25.3059Z" fill="white"/>
<path d="M119.242 29.2246L102.348 39L85.4961 29.2246V9.7107L102.348 0L119.242 9.7107V29.2246ZM89.3657 27.0054L102.348 34.5191L115.352 27.0054V11.9779L102.348 4.46422L89.3657 11.9779V27.0054ZM90.9774 25.0026V13.7218H95.5559L95.6851 15.0996C96.6599 13.9518 98.0211 13.3779 99.7688 13.3779C101.846 13.3779 103.308 14.0239 104.153 15.3159C105.138 14.0227 106.643 13.3766 108.667 13.3779C109.585 13.3568 110.498 13.5177 111.353 13.8513C112.08 14.1301 112.703 14.6259 113.139 15.2716C113.587 15.9542 113.812 16.7594 113.783 17.5758V25.0045H108.924V18.2434C108.936 18.0119 108.898 17.7805 108.813 17.5651C108.727 17.3496 108.597 17.1552 108.429 16.9951C108.058 16.6638 107.571 16.4935 107.074 16.5217C106.466 16.4908 105.87 16.6992 105.413 17.1024C105.013 17.4907 104.812 18.0363 104.811 18.739V25.0045H99.9183V18.2434C99.9285 18.0141 99.8918 17.7851 99.8106 17.5704C99.7293 17.3558 99.6052 17.16 99.4457 16.9951C99.2739 16.8321 99.0706 16.706 98.8484 16.6246C98.6262 16.5432 98.3897 16.5082 98.1534 16.5217C97.4076 16.5217 96.834 16.7227 96.4328 17.1246C96.0316 17.5265 95.8309 18.0646 95.8309 18.739V25.0045L90.9774 25.0026Z" fill="white"/>
<path d="M128.17 25.4132C126.863 25.4282 125.565 25.1947 124.345 24.7253C123.257 24.3026 122.301 23.5965 121.576 22.6799C120.881 21.7726 120.516 20.6553 120.54 19.5121C120.513 18.3503 120.876 17.213 121.572 16.2832C122.288 15.3575 123.247 14.6493 124.341 14.2379C126.811 13.2885 129.544 13.2885 132.014 14.2379C133.106 14.6577 134.061 15.3736 134.77 16.3054C135.463 17.2284 135.826 18.3577 135.8 19.5121C135.821 20.6568 135.449 21.7741 134.748 22.6781C134.023 23.5947 133.067 24.3008 131.979 24.7234C130.764 25.1928 129.472 25.4268 128.17 25.4132ZM128.15 22.3341C128.656 22.3363 129.153 22.2029 129.59 21.9476C130.024 21.6993 130.386 21.3432 130.642 20.9138C130.898 20.4766 131.032 19.9784 131.03 19.4714C131.031 18.9711 130.897 18.4798 130.642 18.0493C130.39 17.6111 130.027 17.2475 129.59 16.9952C129.152 16.7409 128.656 16.6069 128.15 16.6069C127.644 16.6069 127.147 16.7409 126.71 16.9952C126.282 17.2524 125.926 17.6154 125.678 18.0493C125.432 18.4825 125.305 18.9731 125.309 19.4714C125.297 19.9721 125.42 20.4666 125.666 20.9026C125.913 21.3386 126.272 21.6997 126.706 21.9476C127.144 22.2039 127.643 22.3374 128.15 22.3341Z" fill="white"/>
<path d="M137.22 25.0045V13.8939H141.651L141.823 15.4232C142.797 14.2027 144.217 13.5924 146.08 13.5924C146.955 13.5771 147.825 13.7381 148.637 14.0658C149.356 14.3361 149.977 14.8168 150.42 15.4454C150.876 16.0843 151.111 16.8555 151.087 17.6406V25.0045H146.355V18.5319C146.368 18.2917 146.328 18.0515 146.239 17.8281C146.15 17.6046 146.014 17.4031 145.84 17.2374C145.444 16.9043 144.936 16.735 144.42 16.764C143.981 16.7561 143.547 16.8518 143.152 17.0432C142.79 17.2208 142.484 17.4971 142.271 17.8403C142.047 18.2169 141.935 18.6501 141.948 19.0886V25.0063L137.22 25.0045Z" fill="white"/>
<path d="M167.554 13.8938L162.138 18.3728L168.029 25.0044H162.267L159.946 22.0123L158.935 20.6771L157.797 21.5462V25.0044H153.067V9.67371H157.797V15.2937L157.753 17.6405L159.708 15.7912L161.857 13.8957L167.554 13.8938Z" fill="white"/>
<path d="M174.123 25.4557C169.968 25.4557 167.725 24.1926 167.396 21.6664L171.889 21.5592C171.927 21.7694 172.007 21.9695 172.126 22.1473C172.244 22.3251 172.397 22.4768 172.576 22.5929C172.945 22.8075 173.536 22.9166 174.339 22.9166C175.113 22.9166 175.686 22.8303 176.058 22.6577C176.429 22.4851 176.614 22.2194 176.612 21.8606C176.616 21.7271 176.582 21.5951 176.513 21.4806C176.444 21.3661 176.344 21.2739 176.224 21.2152C175.883 21.0289 175.504 20.9257 175.116 20.9138L172.58 20.6771C170.918 20.518 169.693 20.1592 168.904 19.6008C168.533 19.3354 168.233 18.9824 168.03 18.573C167.828 18.1636 167.73 17.7105 167.744 17.254C167.744 16.0754 168.267 15.1563 169.312 14.4967C170.357 13.8371 171.948 13.4999 174.084 13.4851C176.046 13.4851 177.565 13.7791 178.641 14.3672C179.716 14.9553 180.36 15.8072 180.572 16.923L176.187 17.0302C176.155 16.846 176.079 16.6721 175.967 16.5224C175.855 16.3727 175.71 16.2514 175.543 16.1684C175.213 15.9958 174.668 15.9102 173.909 15.9114C173.41 15.8903 172.913 15.9708 172.447 16.1481C172.103 16.2905 171.932 16.5069 171.932 16.7935C171.929 16.9238 171.965 17.0519 172.033 17.1627C172.101 17.2735 172.2 17.3623 172.317 17.4186C172.708 17.5798 173.122 17.6742 173.543 17.6978L176.015 17.9142C179.338 18.2002 181 19.3628 181 21.402C181 22.7927 180.412 23.8184 179.237 24.4792C178.061 25.14 176.357 25.4655 174.123 25.4557Z" fill="white"/>
</svg>
