<svg width="248" height="53" viewBox="0 0 248 53" fill="none" xmlns="http://www.w3.org/2000/svg">
<path d="M0 33.9804V18.8839H6.09622L6.24293 20.814C7.57854 19.2323 9.44366 18.4424 11.8383 18.4441C13.0011 18.4096 14.1574 18.6293 15.2254 19.0874C16.1547 19.5007 16.945 20.1707 17.502 21.0175C18.1999 20.1863 19.0893 19.5346 20.0948 19.1176C22.3439 18.2301 24.8474 18.2193 27.1042 19.0874C28.0942 19.4866 28.9379 20.1769 29.522 21.0658C30.1061 21.9548 30.4028 22.9998 30.3723 24.061V33.9804H23.8942V24.9682C23.9129 24.6462 23.8591 24.3241 23.7365 24.0254C23.614 23.7267 23.4259 23.4589 23.1859 23.2417C22.7087 22.8225 22.087 22.6028 21.4506 22.6285C20.9155 22.6239 20.3881 22.7545 19.9177 23.0079C19.4505 23.2581 19.0632 23.6334 18.7996 24.0911C18.537 24.5656 18.4044 25.1003 18.4151 25.6417V33.9804H11.937V24.9682C11.9411 24.5555 11.829 24.1498 11.6132 23.7971C11.4296 23.4393 11.1424 23.1443 10.7885 22.9501C10.4248 22.7322 10.0066 22.6207 9.58195 22.6285C9.02787 22.6197 8.48056 22.7503 7.99086 23.0079C7.52962 23.2526 7.14336 23.6164 6.87279 24.061C6.60797 24.5455 6.47541 25.0905 6.4883 25.6417V33.9804H0Z" fill="white"/>
<path d="M42.6357 34.5082C40.7757 34.5359 38.9269 34.218 37.1845 33.5708C35.6973 33.0018 34.3948 32.0398 33.418 30.7887C32.4961 29.5228 32.0196 27.9903 32.0622 26.4284C32.0293 24.8949 32.5058 23.3934 33.418 22.156C34.3828 20.9166 35.6642 19.9568 37.1289 19.3764C38.7757 18.7187 40.5371 18.3907 42.3119 18.4114C44.1548 18.3843 45.9823 18.7484 47.6721 19.4795C49.1615 20.0965 50.4391 21.1291 51.35 22.4525C52.2714 23.7965 52.7464 25.3933 52.7084 27.0189V27.7729H38.5126C38.6096 28.6795 39.0645 29.5109 39.7773 30.085C40.4637 30.6111 41.4055 30.8741 42.6028 30.8741C43.3096 30.8973 44.013 30.7678 44.6644 30.4946C45.2159 30.2199 45.676 29.7933 45.9899 29.2657L52.205 29.5874C51.5091 31.2322 50.2174 32.5577 48.5852 33.3018C46.8753 34.1077 44.8921 34.5098 42.6357 34.5082ZM46.0228 24.7571C45.866 23.8406 45.4832 23.1579 44.8744 22.7089C44.2656 22.2599 43.4224 22.0253 42.3448 22.0052C40.1846 22.0052 38.9198 22.9225 38.5505 24.7571H46.0228Z" fill="white"/>
<path d="M68.827 13.1488H75.3052V33.9804H69.3557L69.1786 32.0201C67.8447 33.7358 65.8034 34.5944 63.0546 34.5961C61.4596 34.6317 59.878 34.3006 58.4331 33.6285C57.1706 32.9973 56.1242 32.0092 55.4255 30.7887C54.6924 29.4531 54.3268 27.9491 54.3656 26.4283C54.3656 24.7127 54.7484 23.25 55.514 22.0404C56.2687 20.839 57.3512 19.8751 58.6355 19.2608C59.9791 18.6293 61.4494 18.3087 62.9357 18.3234C65.4298 18.3234 67.3936 18.9936 68.827 20.3339V13.1488ZM64.8202 30.2056C66.1179 30.2056 67.1272 29.8839 67.8557 29.2406C68.5842 28.5972 68.9737 27.612 68.9737 26.3429C68.9737 25.0737 68.5994 24.1112 67.8557 23.4477C67.112 22.7843 66.1078 22.4224 64.8506 22.4224C64.1706 22.4135 63.497 22.5534 62.8775 22.832C62.2781 23.0944 61.7741 23.5329 61.4331 24.0886C61.0538 24.781 60.871 25.5628 60.9045 26.3504C60.9045 27.7176 61.2679 28.7027 61.9947 29.3059C62.8 29.928 63.801 30.2467 64.8202 30.2056Z" fill="white"/>
<path d="M81.0593 17.3609C80.483 17.3695 79.9145 17.2283 79.41 16.9513C78.9228 16.6808 78.5161 16.2872 78.2313 15.8103C77.9535 15.2879 77.8118 14.7047 77.819 14.1139C77.8008 13.552 77.9399 12.996 78.2208 12.508C78.5017 12.0199 78.9134 11.6189 79.41 11.3494C79.9164 11.0823 80.481 10.9426 81.0543 10.9426C81.6276 10.9426 82.1921 11.0823 82.6985 11.3494C83.1812 11.6155 83.5791 12.0108 83.8469 12.4904C84.1454 12.9747 84.2989 13.5335 84.2896 14.1013C84.2962 14.6958 84.1434 15.2813 83.8469 15.7977C83.5791 16.2773 83.1812 16.6726 82.6985 16.9387C82.1982 17.2184 81.6333 17.3639 81.0593 17.3609ZM84.2997 33.9804H77.819V18.8839H84.2997V33.9804Z" fill="white"/>
<path d="M100.013 33.9804C99.8402 33.5138 99.7024 33.0349 99.6011 32.5479C98.8255 33.2572 97.8946 33.7777 96.8818 34.0684C95.6318 34.4445 94.33 34.6226 93.0242 34.5961C90.6869 34.5961 88.9593 34.215 87.8412 33.4526C86.7231 32.6903 86.1734 31.5108 86.1919 29.9141C86.1651 29.089 86.3579 28.2715 86.751 27.5442C87.1253 26.9008 87.7737 26.3739 88.6962 25.9634C89.6186 25.5529 90.9138 25.2606 92.5816 25.0863L97.3523 24.6164C97.7675 24.5809 98.1804 24.523 98.5893 24.443C98.7877 24.4062 98.9718 24.3147 99.1205 24.1791C99.2024 24.0472 99.2429 23.8941 99.2368 23.7393V23.488C99.2368 22.8178 99.0117 22.3403 98.5614 22.0555C98.1112 21.7706 97.3827 21.6106 96.3759 21.5754C95.4121 21.5754 94.6659 21.7488 94.1372 22.1007C93.6086 22.4525 93.3025 23.028 93.2241 23.885L87.0166 23.6513C87.129 22.5672 87.5591 21.5396 88.2535 20.6958C88.9415 19.9168 89.9534 19.3304 91.289 18.9366C92.6246 18.5429 94.3624 18.3477 96.5024 18.3511C98.7587 18.3511 100.565 18.5756 101.921 19.0246C103.277 19.4736 104.249 20.127 104.837 20.9848C105.436 21.8242 105.735 22.889 105.735 24.1791V30.178C105.735 31.8534 105.97 33.1209 106.441 33.9804H100.013ZM94.7722 31.1707C95.5761 31.1814 96.3757 31.0521 97.1348 30.7887C97.7791 30.5771 98.3576 30.204 98.8144 29.7055C99.2232 29.2467 99.4435 28.6519 99.4316 28.0393V27.1019C99.3495 27.1371 99.2649 27.1665 99.1786 27.1898H99.0016L95.3489 27.6296C94.7476 27.6758 94.1562 27.8087 93.5934 28.0242C93.2494 28.1305 92.9499 28.3459 92.7409 28.6374C92.572 28.9094 92.4892 29.2254 92.5032 29.5447C92.487 29.7797 92.5299 30.015 92.6279 30.2295C92.7259 30.444 92.876 30.631 93.0647 30.7736C93.4374 31.0383 94.0066 31.1707 94.7722 31.1707Z" fill="white"/>
<path d="M111.609 34.39C111.001 34.3954 110.402 34.2438 109.871 33.9502C109.354 33.6503 108.92 33.2282 108.606 32.7213C108.31 32.1938 108.158 31.5987 108.164 30.9948C108.161 30.4008 108.314 29.8162 108.606 29.2984C108.915 28.7803 109.35 28.348 109.871 28.0418C110.399 27.7358 110.998 27.5745 111.609 27.5745C112.22 27.5745 112.819 27.7358 113.347 28.0418C113.869 28.3476 114.304 28.7799 114.612 29.2984C114.919 29.8118 115.082 30.3984 115.082 30.996C115.082 31.5937 114.919 32.1802 114.612 32.6937C114.305 33.2131 113.87 33.6458 113.347 33.9502C112.816 34.2445 112.217 34.3961 111.609 34.39Z" fill="white"/>
<path d="M163.381 39.7154L140.233 53L117.144 39.7154V13.1966L140.233 0L163.381 13.1966V39.7154ZM122.446 36.6996L140.233 46.9106L158.051 36.6996V16.2777L140.233 6.06677L122.446 16.2777V36.6996ZM124.654 33.9779V18.6476H130.927L131.104 20.5199C132.44 18.9601 134.305 18.1802 136.7 18.1802C139.546 18.1802 141.549 19.0581 142.707 20.814C144.056 19.0564 146.118 18.1785 148.892 18.1802C150.149 18.1516 151.4 18.3702 152.572 18.8236C153.568 19.2024 154.422 19.8763 155.019 20.7537C155.632 21.6814 155.941 22.7756 155.901 23.8851V33.9804H149.244V24.7923C149.26 24.4777 149.208 24.1633 149.091 23.8705C148.974 23.5777 148.795 23.3135 148.566 23.0959C148.057 22.6457 147.389 22.4143 146.709 22.4526C145.876 22.4106 145.059 22.6938 144.432 23.2417C143.884 23.7695 143.609 24.5108 143.608 25.4658V33.9804H136.904V24.7923C136.918 24.4806 136.868 24.1694 136.757 23.8777C136.645 23.5861 136.475 23.32 136.257 23.0959C136.021 22.8744 135.743 22.7031 135.438 22.5924C135.134 22.4818 134.81 22.4342 134.486 22.4526C133.464 22.4526 132.678 22.7257 132.129 23.2718C131.579 23.818 131.304 24.5494 131.304 25.4658V33.9804L124.654 33.9779Z" fill="white"/>
<path d="M175.614 34.5359C173.823 34.5562 172.045 34.239 170.373 33.601C168.882 33.0266 167.572 32.0671 166.579 30.8214C165.627 29.5884 165.126 28.0699 165.16 26.5164C165.122 24.9375 165.62 23.392 166.574 22.1284C167.555 20.8704 168.868 19.9081 170.368 19.3489C173.752 18.0587 177.497 18.0587 180.881 19.3489C182.378 19.9195 183.685 20.8923 184.657 22.1586C185.606 23.4129 186.103 24.9477 186.069 26.5164C186.097 28.0721 185.588 29.5904 184.627 30.8189C183.634 32.0645 182.324 33.0241 180.833 33.5985C179.169 34.2363 177.398 34.5544 175.614 34.5359ZM175.587 30.3515C176.28 30.3545 176.961 30.1731 177.56 29.8262C178.154 29.4887 178.65 29.0049 179.001 28.4214C179.352 27.8272 179.536 27.1501 179.533 26.4611C179.533 25.7812 179.35 25.1136 179.001 24.5285C178.656 23.9331 178.159 23.4389 177.56 23.096C176.96 22.7504 176.28 22.5684 175.587 22.5684C174.894 22.5684 174.213 22.7504 173.613 23.096C173.027 23.4456 172.54 23.9388 172.199 24.5285C171.863 25.1173 171.688 25.7839 171.694 26.4611C171.677 27.1415 171.847 27.8136 172.184 28.4061C172.521 28.9986 173.013 29.4893 173.608 29.8262C174.208 30.1746 174.892 30.356 175.587 30.3515Z" fill="white"/>
<path d="M188.014 33.9804V18.8814H194.085L194.32 20.9598C195.656 19.3011 197.6 18.4718 200.153 18.4718C201.353 18.451 202.544 18.6698 203.657 19.1151C204.642 19.4824 205.494 20.1356 206.1 20.9899C206.725 21.8581 207.046 22.9062 207.014 23.9731V33.9804H200.53V25.1844C200.548 24.8579 200.494 24.5316 200.372 24.2279C200.25 23.9242 200.063 23.6503 199.825 23.4252C199.282 22.9726 198.587 22.7425 197.879 22.7818C197.278 22.7711 196.683 22.9011 196.142 23.1613C195.645 23.4027 195.227 23.778 194.935 24.2445C194.627 24.7563 194.474 25.345 194.492 25.9409V33.983L188.014 33.9804Z" fill="white"/>
<path d="M229.577 18.8814L222.155 24.9683L230.227 33.9804H222.332L219.153 29.9142L217.766 28.0997L216.208 29.2808V33.9804H209.728V13.1464H216.208V20.7839L216.148 23.9731L218.826 21.4599L221.771 18.8839L229.577 18.8814Z" fill="white"/>
<path d="M238.578 34.5936C232.884 34.5936 229.812 32.8771 229.36 29.4441L235.517 29.2984C235.569 29.584 235.679 29.856 235.841 30.0977C236.003 30.3393 236.213 30.5454 236.458 30.7032C236.964 30.9948 237.773 31.143 238.874 31.143C239.934 31.143 240.719 31.0258 241.229 30.7912C241.738 30.5566 241.991 30.1956 241.987 29.708C241.993 29.5265 241.946 29.3472 241.852 29.1916C241.758 29.036 241.62 28.9107 241.456 28.8309C240.99 28.5778 240.47 28.4374 239.938 28.4213L236.463 28.0996C234.186 27.8835 232.507 27.3959 231.427 26.6369C230.918 26.2764 230.507 25.7966 230.23 25.2403C229.953 24.6839 229.818 24.0682 229.838 23.4477C229.838 21.846 230.554 20.597 231.986 19.7006C233.417 18.8043 235.597 18.346 238.524 18.3259C241.212 18.3259 243.293 18.7255 244.767 19.5247C246.241 20.3239 247.123 21.4816 247.413 22.9979L241.406 23.1437C241.361 22.8933 241.258 22.6569 241.105 22.4535C240.951 22.2501 240.752 22.0853 240.523 21.9725C240.071 21.738 239.325 21.6215 238.284 21.6232C237.601 21.5945 236.92 21.7039 236.281 21.9449C235.81 22.1384 235.575 22.4324 235.575 22.822C235.572 22.999 235.62 23.1731 235.714 23.3237C235.808 23.4743 235.943 23.5949 236.104 23.6714C236.638 23.8905 237.206 24.0187 237.783 24.0509L241.17 24.3449C245.724 24.7336 248 26.3136 248 29.0848C248 30.9747 247.195 32.3686 245.584 33.2667C243.974 34.1647 241.638 34.607 238.578 34.5936Z" fill="white"/>
</svg>
